<svg width="512" height="512" viewBox="0 0 512 512" fill="none" xmlns="http://www.w3.org/2000/svg">
<path fill-rule="evenodd" clip-rule="evenodd" d="M251.391 73.0467C244.314 73.6538 233.516 76.294 226 79.2549C210.382 85.4084 193.318 97.5534 181.192 111.147C173.77 119.469 170.247 124.355 158.813 142.19C155.995 146.585 154.256 148.814 151.586 151.448C145.361 157.59 139.38 161.526 133.618 163.273C129.926 164.391 123.189 164.228 119.219 162.924L116.148 161.915L116.396 163.157C117.092 166.642 120.97 172.634 124.356 175.455C129.009 179.332 133.995 181 140.933 181C144.811 181 145.175 181.062 144.982 181.684C144.626 182.834 143.691 187.609 142.936 192.133C141.911 198.275 141.901 215.293 142.92 221.337C144.906 233.125 150.502 244.13 157.304 249.626C158.791 250.827 160.104 251.715 160.221 251.598C160.338 251.481 160.163 250.863 159.833 250.224C157.344 245.412 156.001 239.485 155.934 233.019C155.877 227.481 156.407 218.891 156.806 218.891C156.949 218.891 157.467 220.851 157.956 223.246C159.461 230.609 163.489 239.708 167.596 245.021L169.828 247.909L168.822 253.224C166.247 266.832 162.003 278.669 156.036 288.885C153.764 292.776 153.355 293.11 150.855 293.11C147.76 293.11 141.588 294.813 137.552 296.781C128.304 301.29 121.575 309.186 118.504 319.133C117.779 321.48 117.653 323.04 117.506 331.435L117.338 341.049L114.345 341.261C112.699 341.377 110.335 341.855 109.092 342.324C105.948 343.51 102.626 346.653 101.157 349.835L100.024 352.289V379.828V407.367L101.268 409.994C102.669 412.952 105.454 416.148 107.857 417.556C108.742 418.075 110.841 418.851 112.522 419.281C115.473 420.036 116.851 420.063 152.384 420.063H189.189L191.872 421.085C199.166 423.864 212.071 427.335 222.094 429.212C240.655 432.69 269.795 434.263 287.345 432.735L294.336 432.127L296.637 433.689C299.545 435.664 302.553 436.671 307.214 437.231C311.015 437.687 317.551 437.409 317.179 436.807C317.064 436.621 316.668 436.469 316.299 436.469C314.975 436.469 310.151 433.796 308.649 432.231C306.861 430.369 306.622 430.521 312.719 429.635C317.577 428.929 328.963 426.574 335.205 424.984C354.889 419.971 370.681 412.323 379.627 403.47C385.356 397.8 388.808 392.223 391.237 384.71C393.179 378.703 393.225 378.709 392.999 384.906C392.485 398.962 387.393 412.77 379.583 421.289C378.472 422.501 377.563 423.614 377.563 423.762C377.563 424.453 386.448 421.681 390.076 419.858C397.388 416.184 405.212 408.293 409.914 399.85L411.602 396.821L411.341 399.15C411.197 400.432 410.725 402.629 410.292 404.033C409.442 406.787 407.131 411.646 406.479 412.049C406.259 412.185 406.079 412.464 406.079 412.669C406.079 412.874 407.3 412.426 408.793 411.674C419.475 406.295 427.914 388.789 427.946 371.946C427.957 365.594 426.416 356.494 424.428 351.18L423.653 349.109L425.42 346.012C428.787 340.108 430.268 334.885 430.562 327.875C430.813 321.879 430.085 316.933 428.09 311.078C424.98 301.957 420.64 295.151 410.776 283.93C405.473 277.897 400.733 271.724 397.402 266.514C392.457 258.78 387.737 248.384 385.913 241.208C384.022 233.767 383.745 229.704 383.423 204.633C383.257 191.742 382.92 179.262 382.673 176.899C380.09 152.102 371.97 131.499 357.658 113.422C353.648 108.357 344.248 98.9526 339.282 95.0366C327.845 86.0186 316.323 80.2444 303.735 77.2225C300.454 76.4346 298.252 76.1967 292.732 76.0323C286.334 75.8416 285.447 75.9034 280.55 76.8803L275.268 77.9334L273.388 77.0838C266.79 74.101 257.971 72.4827 251.391 73.0467ZM246.516 78.6799C233.01 80.7698 215.108 89.3745 200.9 100.606C195.517 104.861 183.701 116.782 178.905 122.797C161.551 144.56 150.143 170.627 147.266 195.087C145.75 207.989 147.208 224.697 150.508 232.228L151.254 233.93L151.512 227.875C152.073 214.689 154.612 200.144 158.161 189.789C159.966 184.525 161.904 179.719 162.415 179.242C162.704 178.973 162.744 179.01 162.545 179.36C161.993 180.336 160.771 189.007 160.322 195.137C159.31 208.964 161.721 224.437 166.446 234.446C168.903 239.651 171.202 242.911 174.959 246.518C178.768 250.175 185.375 254.324 185.375 253.059C185.375 252.946 184.839 251.789 184.182 250.49C179.981 242.167 177.615 229.275 178.108 217.403C178.612 205.268 182.138 187.563 186.791 173.805C189.797 164.917 195.806 154.123 201.52 147.349L202.625 146.039L201.796 147.406C198.96 152.081 194.274 162.224 191.486 169.719C188.811 176.91 184.834 192.698 185.523 193.387C185.642 193.506 186.371 193.05 187.143 192.373C187.915 191.695 189.956 190.321 191.681 189.319L194.815 187.498L196.724 183.695C199.455 178.251 203.826 170.748 208.077 164.203C211.398 159.091 211.879 158.11 213.018 154.131C217.558 138.264 225.755 123.438 233.227 117.577C234.647 116.463 234.728 116.44 234.113 117.328C231.301 121.384 226.554 129.368 224.241 133.93C218.815 144.633 215.509 155.22 214.245 165.936C213.725 170.341 213.988 182.137 214.667 184.906C215.797 189.512 215.706 189.362 218.493 191.266C221.399 193.251 223.152 194.917 222.755 195.314C222.615 195.453 221.465 195.102 220.198 194.534C218.931 193.965 217.792 193.5 217.666 193.5C217.374 193.5 219.582 198.665 221.501 202.472C223.288 206.018 225.956 210.297 226.381 210.297C226.551 210.297 226.436 209.559 226.125 208.657C223.64 201.444 222.41 185.173 223.636 175.727C224.45 169.444 227.425 157.277 229.748 150.727C230.803 147.751 234.202 140.634 234.449 140.881C234.534 140.966 234.329 141.809 233.994 142.756C231.925 148.61 229.03 160.692 228.063 167.51C227.175 173.773 227.204 185.584 228.118 190.375C231.173 206.374 240.104 220.272 251.684 227.046C252.812 227.706 253.731 228.118 253.727 227.963C253.723 227.807 253.465 226.274 253.153 224.555C251.371 214.72 252.253 200.483 255.52 186.364C257.031 179.836 257.279 179.44 257.044 183.93C256.318 197.756 256.088 202.98 256.107 205.219L256.129 207.758L256.764 206.391C257.113 205.639 259.144 201.332 261.276 196.821C274.832 168.137 276.824 162.059 278.174 145.248C278.76 137.953 279.125 135.349 279.126 138.455C279.126 140.382 281.287 152.041 282.45 156.391C285.238 166.82 289.011 175.925 293.159 182.233C294.773 184.689 294.959 184.837 297.242 185.47C298.557 185.836 301.465 186.824 303.704 187.667C305.942 188.511 307.856 189.119 307.956 189.019C308.056 188.919 307.764 187.968 307.308 186.907C305.123 181.828 302.782 174.201 301.238 167.133C300.092 161.885 297.811 148.512 298.026 148.298C298.189 148.135 299.289 151.637 302.532 162.641C308.163 181.741 313.678 192.628 324.771 206.539C329.164 212.048 330.958 214.048 331.251 213.764C331.844 213.187 334.551 190.553 335.037 182.103C335.181 179.6 335.765 185.98 335.99 192.524C336.259 200.322 335.623 210.883 334.377 219.281C332.989 228.648 329.59 242.086 326.672 249.75C324.059 256.615 319.99 263.762 315.71 269.004C314.87 270.033 314.27 270.963 314.378 271.07C314.632 271.325 318.998 269.676 321.717 268.298C326.259 265.997 330.943 262.453 335.603 257.792C340.681 252.712 343.317 249.241 346.307 243.696C355.55 226.558 358.71 200.56 354.682 174.802C352.061 158.046 347.925 144.89 341.098 131.596C338.131 125.817 338.113 125.762 339.845 127.68C346.096 134.6 352.063 147.405 355.864 162.055C360.092 178.35 361.226 199.021 358.821 215.961C358.514 218.125 358.553 218.348 359.334 218.861C361.511 220.292 365.72 225.103 366.909 227.519C369.006 231.783 369.554 234.451 369.509 240.18C369.477 244.298 369.281 245.972 368.469 249.035C366.54 256.311 363.371 262.199 358.685 267.208L356.355 269.698L356.58 273.103C356.83 276.894 359.542 288.086 361.539 293.571C363.042 297.699 368.002 307.876 371.329 313.659C372.675 315.999 376.775 322.748 380.438 328.656C384.101 334.565 388.252 341.684 389.661 344.477C398.078 361.156 400.616 379.589 396.843 396.625C395.656 401.985 393.962 407.417 392.375 410.955C391.738 412.374 391.266 413.583 391.325 413.643C391.686 414.003 398.085 407.972 400.471 405.024C405.207 399.17 407.999 393.598 410.262 385.484C411.305 381.742 411.347 381.242 411.32 372.992C411.304 368.266 411.105 363.548 410.877 362.509C410.213 359.477 411.032 360.954 412.729 365.846C415.772 374.624 416.947 383.249 416.254 391.724C415.909 395.941 415.94 397.077 416.384 396.593C416.466 396.503 417.149 395.199 417.901 393.696C423.979 381.537 424.004 364.698 417.968 349.326C415.754 343.685 409.652 331.739 404.1 322.171C397.73 311.194 390.202 297.622 388.522 294.086C384.08 284.737 378.84 271.447 377.393 265.864C377.048 264.535 376.658 263.134 376.525 262.751C376.391 262.368 377.261 263.592 378.458 265.471C381.89 270.862 382.764 271.827 397.12 286.078C411.967 300.817 415.166 304.62 419.116 312.225C423.22 320.128 424.593 326.525 423.565 332.962C423.238 335.008 422.493 337.876 421.91 339.335C420.984 341.649 420.909 342.135 421.323 343.135C421.585 343.765 421.931 344.281 422.093 344.281C422.597 344.281 424.082 340.415 425.063 336.548C426.888 329.353 426.185 320.803 423.081 312.446C420.289 304.929 416.665 299.265 408.125 289.071C397.249 276.089 392.132 268.543 386.904 257.776C382.217 248.124 380.309 242.248 376.792 226.63C375.518 220.977 373.782 213.276 372.934 209.516C371.369 202.585 369.222 190.773 369.48 190.515C369.558 190.438 370.016 192.176 370.5 194.379C371.52 199.026 374.22 208.692 376.147 214.594L377.486 218.696L377.524 203.442C377.573 183.996 377.062 177.048 374.621 164.007C373.575 158.419 370.461 147.906 368.314 142.721C361.582 126.453 349.731 110.516 336.553 100.007C327.691 92.9397 315.818 86.5651 305.955 83.5795C299.462 81.6139 296.544 81.1987 289.282 81.2045C283.16 81.2096 282.009 81.3202 278.271 82.2635L274.096 83.3174L270.458 81.603C264.863 78.9655 263.083 78.5901 255.493 78.4452C251.84 78.3756 247.801 78.4811 246.516 78.6799ZM236.938 95.2823C228.409 97.1225 219.502 101.684 211.216 108.455C207.674 111.349 201 117.678 201 118.142C201 118.325 202.539 117.238 204.418 115.728C209.372 111.749 217.62 106.292 222.005 104.094C224.095 103.046 227.563 101.612 229.711 100.907C233.15 99.7787 234.249 99.6053 238.891 99.4588C245.102 99.2623 248.227 99.7959 253.08 101.88C254.854 102.642 256.491 103.266 256.718 103.266C256.944 103.266 257.451 102.91 257.844 102.476C258.54 101.706 258.529 101.646 257.416 100.07C255.993 98.0557 252.506 96.0729 248.97 95.2678C245.771 94.5393 240.35 94.5459 236.938 95.2823ZM273.479 99.1991C271.648 99.8698 270.141 101.185 270.141 102.114C270.141 103.462 271.122 103.754 274.724 103.479C286.445 102.582 297.775 107.578 309.152 118.658C319.211 128.453 326.721 138.662 333.272 151.443C334.465 153.77 335.514 155.601 335.603 155.512C335.855 155.26 329.471 141.723 327.354 138.022C313.647 114.054 294.234 98.5061 278.149 98.6127C276.43 98.6241 274.329 98.8881 273.479 99.1991ZM150.996 158.993C145.509 163.766 139.384 167.351 134.802 168.471C132.831 168.953 125.942 169.097 125.096 168.674C124.841 168.547 125.499 169.26 126.558 170.258C128.618 172.201 131.265 173.707 134.165 174.587C136.956 175.434 142.129 175.274 145.141 174.248L147.68 173.383L148.749 170.258C150.518 165.087 152.224 160.605 153.199 158.569C153.706 157.512 154.075 156.601 154.021 156.547C153.966 156.492 152.606 157.593 150.996 158.993ZM278.066 167.787C276.916 171.264 274.512 177.092 272.332 181.689C270.268 186.042 268.579 189.672 268.579 189.756C268.579 189.84 269.765 189.311 271.215 188.58C276.159 186.09 282.217 184.558 287.231 184.53C288.574 184.522 289.672 184.435 289.672 184.337C289.672 184.239 288.403 181.734 286.851 178.771C285.183 175.587 283.215 171.015 282.038 167.591L280.047 161.799L278.066 167.787ZM208.557 171.538C206.007 175.355 199.829 185.736 199.829 186.203C199.829 186.244 201.191 186.278 202.856 186.276C204.521 186.275 207.095 186.422 208.576 186.604L211.269 186.934L211.013 185.651C210.359 182.383 209.919 176.831 210.043 173.42C210.119 171.358 210.092 169.676 209.985 169.682C209.877 169.688 209.235 170.523 208.557 171.538ZM279.427 189.641C276.104 190.069 270.335 191.912 267.958 193.304C266.249 194.306 265.97 194.719 263.508 199.894C260.583 206.04 258.84 210.403 257.789 214.203C256.859 217.567 256.811 226.945 257.706 230.512L258.318 232.953H257.391C256.206 232.953 248.837 229.119 245.532 226.783C242.115 224.368 236.802 218.944 234.349 215.367C233.246 213.76 231.447 210.776 230.35 208.735C229.253 206.694 228.353 205.199 228.351 205.414C228.339 206.62 229.621 213.203 230.29 215.375C230.72 216.772 231.074 217.958 231.075 218.012C231.111 219.189 222.5 209.477 219.561 205.025C217.309 201.614 214.911 197.177 213.624 194.038C212.839 192.124 212.711 192.013 210.711 191.509C208.408 190.93 200.484 190.781 198.162 191.273C196.759 191.571 196.592 191.783 194.522 195.91C190.555 203.82 187.641 211.764 185.806 219.672C184.889 223.626 184.368 228.267 184.842 228.262C185.028 228.26 185.87 227.162 186.713 225.821C187.557 224.48 188.9 222.492 189.699 221.404C191.147 219.431 191.149 219.422 190.421 218.474C189.35 217.082 189.503 216.856 191.071 217.512C192.429 218.079 192.511 218.062 193.903 216.955C197.467 214.119 203.116 212.391 207.539 212.784C215.793 213.519 224.959 220.164 226.2 226.313L226.475 227.68L225.164 226.457C223.974 225.348 222.457 224.36 221.947 224.36C221.837 224.36 222.086 225.124 222.499 226.057C224.056 229.579 224.52 232.797 224.338 238.813C224.143 245.235 223.379 248.344 221.211 251.539C219.519 254.033 218.238 254.901 215.916 255.124C211.925 255.507 207.724 253.015 205.345 248.855C202.443 243.781 201.333 234.489 202.892 228.325C203.711 225.088 205.516 221.596 207.449 219.51C208.008 218.907 208.379 218.327 208.273 218.221C207.754 217.702 203.712 218.753 200.993 220.113C197.558 221.832 194.657 224.658 193.138 227.764C191.93 230.233 191.702 234.581 192.578 238.435C192.931 239.986 193.152 241.323 193.068 241.406C192.807 241.667 189.827 237.165 188.507 234.516C187.381 232.254 185.706 230.272 184.887 230.233C184.133 230.197 185.029 239.471 186.358 245.453C187.246 249.453 189.591 254.17 192.06 256.926L194.115 259.219L192.382 258.951C191.429 258.803 190.078 258.587 189.379 258.47C187.832 258.21 187.85 257.859 189.069 264.799C190.816 274.742 193.361 281.439 197.463 286.887C202.192 293.169 213.897 303.034 223.852 309.13C227.679 311.473 238.478 317.515 242.184 319.387C249.107 322.884 252.604 322.855 263.305 319.208C273.697 315.668 283.2 310.904 294.555 303.542C302.415 298.446 305.316 296.186 309.041 292.257C312.189 288.936 313.67 286.892 315.357 283.539C316.524 281.221 318.701 274.742 318.41 274.452C318.328 274.369 316.585 274.664 314.538 275.108C311.623 275.739 303.998 276.678 301.609 276.7C301.407 276.702 302.286 276.075 303.563 275.308C308.98 272.049 312.712 268.61 315.666 264.155C321.265 255.71 325.382 244.516 328.936 228.079C330.22 222.14 330.226 222.193 328.247 221.191C325.512 219.806 315.872 213.349 312.524 210.659C308.031 207.049 301.743 200.614 297.68 195.465C292.224 188.553 293.302 189.195 287.248 189.253C284.392 189.28 280.872 189.455 279.427 189.641ZM298.623 190.699C299.335 192.019 304.348 197.697 307.709 200.992C312.531 205.717 323.322 214.203 324.508 214.203C324.694 214.203 323.656 212.731 322.201 210.932C318.766 206.686 315.664 202.36 312.946 198.028C311.746 196.114 310.456 194.335 310.081 194.074C309.221 193.477 304.795 191.885 301.101 190.844C298.562 190.128 298.308 190.114 298.623 190.699ZM189.282 193.646C185.169 195.072 184.737 195.486 184.211 198.502C183.227 204.155 182.355 215.007 182.934 214.399C183.139 214.184 184.112 212.074 185.097 209.711C186.082 207.348 188.112 202.558 189.608 199.067C191.103 195.576 192.213 192.729 192.074 192.742C191.935 192.755 190.678 193.161 189.282 193.646ZM286.982 212.854C279.39 214.501 275.252 217.394 271.868 223.421C271.133 224.73 270.532 225.899 270.532 226.018C270.532 226.137 271.153 225.614 271.912 224.855C272.671 224.095 273.368 223.55 273.46 223.642C273.552 223.735 273.397 224.593 273.114 225.55C272.832 226.506 272.499 227.992 272.376 228.852C272.189 230.151 272.229 230.292 272.611 229.687C277.506 221.951 280.923 219.563 287.804 219.07L291.04 218.838L289.477 219.589C286.063 221.228 283.079 225.546 281.591 231C280.496 235.011 280.678 241.644 281.994 245.679C284.208 252.467 287.44 255.526 292.804 255.91C296.325 256.162 298.886 255.296 301.165 253.08C306.761 247.641 308.852 234.428 305.712 224.339C305.314 223.061 305.079 222.016 305.188 222.016C305.731 222.016 309.372 225.018 310.925 226.746C315.271 231.579 316.025 236.279 313.656 243.781C313.241 245.095 315.248 242.24 317.803 237.881C319.835 234.413 320.718 233.291 322.188 232.305C323.2 231.627 324.253 230.99 324.527 230.891C325.072 230.694 324.254 229.902 317.886 224.465C314.492 221.569 313.974 220.979 314.532 220.649C314.894 220.434 315.734 219.78 316.397 219.196L317.602 218.133L314.955 218.878L312.307 219.623L309.427 217.556C303.113 213.026 294.503 211.222 286.982 212.854ZM357.491 224.653C357.375 225.243 357.076 226.818 356.827 228.151L356.374 230.575L357.611 231.812C359.147 233.347 360.666 236.289 360.999 238.374C361.254 239.969 360.85 246.058 360.511 245.719C360.411 245.619 360.162 244.361 359.958 242.924C359.755 241.487 359.214 239.44 358.756 238.376C357.915 236.422 356.177 234.627 355.67 235.188C355.518 235.356 354.552 238.041 353.521 241.156C352.05 245.605 351.209 249.294 349.606 258.344C348.484 264.682 347.626 269.931 347.7 270.01C348.238 270.579 355.252 264.628 357.675 261.545C367.408 249.164 368.458 234.908 360.31 225.767C359.238 224.563 358.212 223.578 358.031 223.578C357.851 223.578 357.608 224.062 357.491 224.653ZM216.528 226.344C214.482 227.535 214.242 231.079 216.107 232.546C217.446 233.599 218.682 233.554 220.022 232.401C220.932 231.619 221.118 231.149 221.118 229.633C221.118 228.117 220.932 227.647 220.022 226.865C218.862 225.867 217.655 225.687 216.528 226.344ZM298.386 226.865C297.483 227.641 297.29 228.122 297.29 229.589C297.29 231.931 298.407 233.131 300.59 233.131C302.815 233.131 304.125 231.803 304.125 229.547C304.125 226.26 300.862 224.735 298.386 226.865ZM285.451 237.029C283.999 238.682 283.632 240.356 283.934 243.955C284.449 250.092 288.772 255.396 293.211 255.336C298.283 255.267 302.52 249.817 302.612 243.242C302.647 240.754 302.061 239.149 300.65 237.872L299.829 237.129V238.885C299.829 240.778 298.088 244.787 296.734 246.012C295.575 247.061 293.108 247.244 291.66 246.388C289.438 245.075 288.4 242.958 288.143 239.215C287.874 235.303 287.344 234.872 285.451 237.029ZM207.671 237.106C205.156 240.303 205.922 247.643 209.127 251.072C211.8 253.931 214.871 255.042 217.187 253.987C218.4 253.434 220.685 250.169 221.518 247.797C222.784 244.194 222.563 239.599 221.118 239.445C220.903 239.422 220.288 240.657 219.75 242.19C218.658 245.307 218.164 246.025 216.528 246.871C215.072 247.624 213.508 247.279 212.203 245.917C210.985 244.646 210.263 242.714 209.584 238.91C209.306 237.353 208.943 236.078 208.779 236.078C208.614 236.078 208.115 236.541 207.671 237.106ZM81.9786 246.585C80.4563 247.541 79.8673 249.738 80.7282 251.25C81.0544 251.823 85.1594 254.583 90.9274 258.108C96.2368 261.353 100.586 264.096 100.591 264.203C100.597 264.311 100.013 264.75 99.2923 265.18C87.9329 271.955 81.4212 276.249 80.8196 277.362C79.3594 280.063 81.4794 283.187 84.7208 283.11C86.079 283.078 87.4305 282.398 92.7973 279.048C99.6294 274.783 106.155 270.745 108.429 269.376C110.538 268.106 111.591 266.773 111.818 265.087C112.113 262.885 111.211 261.437 108.54 259.828C101.401 255.529 90.3692 248.712 88.6274 247.524C86.0755 245.783 83.7735 245.458 81.9786 246.585ZM174.267 252.558C174.177 252.84 173.561 255.482 172.9 258.429C170.08 270.997 165.913 282.003 160.423 291.385L159.261 293.371L162.065 294.032C167.042 295.205 174.642 299.123 177.003 301.732C177.378 302.146 177.819 302.485 177.984 302.485C178.511 302.485 181.732 297.331 183.6 293.498C184.595 291.458 186.106 287.581 186.958 284.881L188.508 279.973L187.728 277.706C186.71 274.747 185.488 268.354 184.775 262.253C184.461 259.568 184.204 257.239 184.204 257.077C184.204 256.914 184.05 256.781 183.861 256.781C183.305 256.781 179.507 254.973 176.876 253.455C175.12 252.442 174.386 252.19 174.267 252.558ZM340.316 258.175C334.477 264.235 328.566 269.146 324.838 271.035C322.633 272.152 322.896 271.524 320.173 282.196C317.572 292.394 314.585 307.418 313.11 317.719C311.315 330.252 308.827 340.339 305.544 348.391C304.802 350.213 304.31 351.701 304.453 351.697C305.295 351.676 310.855 342.802 315.34 334.321C316.931 331.313 318.113 329.291 317.967 329.828C317.211 332.615 313.52 341.926 311.541 346.039C308.031 353.337 305.27 357.341 297.668 366.156C287.506 377.941 284.162 383.06 281.72 390.571C279.601 397.087 279.276 404.618 280.848 410.735C281.366 412.75 282.099 415.102 282.476 415.961L283.161 417.524L283.664 413.651C284.303 408.73 285.738 403.69 287.847 398.968C289.44 395.4 293.196 388.69 293.455 388.95C293.524 389.019 293.221 390.115 292.782 391.385C290.277 398.627 289.315 409.24 290.629 415.145C291.568 419.365 293.604 423.175 296.656 426.42C299.097 429.017 301.93 431.391 302.586 431.391C302.748 431.391 302.287 430.204 301.561 428.754C297.638 420.928 298.034 407.112 302.571 393.5C304.398 388.018 306.616 382.82 312.236 370.844C324.925 343.81 333.512 315.742 343.368 269.086C344.775 262.426 346.163 255.878 346.453 254.535C346.795 252.947 346.839 252.094 346.578 252.094C346.358 252.094 343.54 254.831 340.316 258.175ZM237.06 259.709C235.868 260.544 233.813 264.034 233.813 265.223C233.813 266.727 234.92 268.32 236.636 269.284C237.475 269.756 238.25 270.052 238.359 269.943C238.469 269.834 238.262 269.173 237.9 268.473C236.926 266.589 236.716 263.076 237.45 260.924C237.787 259.935 238.024 259.125 237.978 259.125C237.931 259.125 237.518 259.388 237.06 259.709ZM349.653 276.167C347.945 277.528 346.425 278.865 346.276 279.138C346.127 279.41 345.101 283.5 343.996 288.227C342.891 292.953 341.265 299.531 340.384 302.843C338.873 308.521 338.795 309.081 339.017 312.609C339.467 319.742 342.472 332.854 346.052 343.305C348.514 350.494 348.225 350.087 352.49 352.39C358.805 355.803 361.168 357.513 365.356 361.701C368.657 365.002 369.36 365.546 369.36 364.798C369.36 361.924 366.561 348.806 364.231 340.766C362.071 333.311 357.549 319.105 356.975 317.976C356.665 317.365 356.502 316.775 356.613 316.664C356.925 316.352 362.803 328.336 364.793 333.344C367.708 340.677 370.951 352.149 372.302 359.906C372.657 361.948 373.086 366.078 373.254 369.086C373.514 373.739 373.742 375.069 374.783 377.999C376.464 382.734 377.172 387.23 377.172 393.161C377.172 395.926 377.319 398.188 377.499 398.188C378.031 398.188 382.223 392.36 383.477 389.877C385.13 386.601 387.181 380.25 387.982 375.922C388.504 373.106 388.671 370.138 388.674 363.617C388.681 348.705 387.602 345.776 373.838 323.368C361.918 303.965 359.49 299.195 356.297 288.923C355.547 286.513 354.473 282.118 353.908 279.157C353.344 276.196 352.854 273.755 352.82 273.733C352.786 273.71 351.361 274.805 349.653 276.167ZM117.707 275.909C115.605 277.562 115.391 280.192 117.209 282.01L118.152 282.953H133.177C141.441 282.953 148.487 282.844 148.834 282.711C149.647 282.399 150.61 280.539 150.61 279.28C150.61 278.742 150.4 277.842 150.143 277.278C149.195 275.197 148.745 275.141 133.104 275.141C119.358 275.141 118.638 275.177 117.707 275.909ZM230.766 284.985C229.965 285.785 230.241 286.648 231.762 288.097C234.594 290.796 238.479 292.413 243.188 292.849C244.904 293.009 245.14 292.968 244.36 292.647C240.27 290.962 236.641 288.828 234.443 286.814C231.788 284.381 231.509 284.242 230.766 284.985ZM268.885 285.635C266.068 288.092 260.686 290.521 253.99 292.357L250.024 293.445L253.026 293.473C259.299 293.53 266.957 290.964 270.825 287.509C271.842 286.6 271.984 285.098 271.086 284.753C270.229 284.424 270.311 284.392 268.885 285.635ZM190.574 286.762C188.52 292.464 184.733 300.048 182.437 303.056C181.69 304.034 181.079 305.009 181.079 305.221C181.079 305.434 181.889 306.706 182.879 308.05C185.188 311.182 186.961 314.715 188.321 318.891C189.353 322.061 189.41 322.638 189.572 331.636L189.742 341.06L192.734 341.252C196.756 341.509 199.706 342.698 202.374 345.136L204.53 347.107L207.16 346.461C208.606 346.105 210.684 345.56 211.778 345.25L213.766 344.687L214.021 335.598C214.275 326.551 215.182 318.298 216.474 313.271C216.799 312.006 216.922 310.85 216.748 310.701C216.573 310.553 214.409 308.928 211.938 307.091C209.467 305.255 205.981 302.485 204.192 300.936C202.402 299.387 200.851 298.206 200.746 298.312C200.135 298.923 196.895 321.855 196.404 329.047L196.124 333.149L195.877 330.414C195.476 325.993 195.502 319.039 195.94 313.403C196.314 308.601 197.621 298.402 198.123 296.372C198.276 295.753 197.836 294.985 196.443 293.439C195.405 292.287 193.788 290.16 192.849 288.712C191.911 287.263 191.07 286.078 190.981 286.078C190.892 286.078 190.709 286.386 190.574 286.762ZM391.479 288.285C393.529 293.194 400.713 306.35 408.616 319.672C411.229 324.076 414.039 328.91 414.86 330.414C415.681 331.918 416.719 333.763 417.166 334.514L417.98 335.88L418.257 334.319C418.722 331.698 418.609 326.98 418 323.532C416.298 313.892 411.033 306.283 396.046 291.801C391.465 287.374 390.925 286.958 391.479 288.285ZM309.594 298.979C308.198 300.255 305.526 302.4 303.658 303.747L300.261 306.196L300.24 310.395C300.22 314.358 300.264 314.594 301.01 314.594C302.327 314.594 306.077 316.063 307.468 317.123L308.775 318.121L309.033 316.65C309.174 315.842 310.061 311.207 311.005 306.351C311.948 301.495 312.719 297.32 312.719 297.074C312.719 296.285 312.189 296.608 309.594 298.979ZM149.243 298.592C146.245 299.052 141.79 300.612 138.305 302.419C132.489 305.436 126.536 312.773 124.148 319.867C123.113 322.94 123.093 323.191 122.96 334.773L122.824 346.553L117.284 346.696C111.223 346.852 109.776 347.287 107.564 349.617C105.143 352.168 105.209 351.307 105.21 379.844C105.21 405.674 105.216 405.861 106.059 407.821C107.106 410.255 109.17 412.317 111.743 413.501L113.696 414.399L153.017 414.504L192.339 414.608L194.572 413.773C197.436 412.701 199.525 410.799 200.891 408.016L201.977 405.805L202.096 381C202.227 353.51 202.183 352.926 199.762 349.989C197.593 347.357 196.077 346.857 189.77 346.695L184.204 346.552V336.309C184.204 330.589 184.015 325.042 183.777 323.748C182.123 314.748 175.223 305.656 166.946 301.569C164.943 300.58 162.163 299.503 160.766 299.175C157.477 298.402 152.209 298.136 149.243 298.592ZM291.821 311.498C286.697 314.7 278.61 318.901 272.68 321.44C267.194 323.789 256.528 327.335 253.517 327.81C251.104 328.191 247.847 327.89 245.609 327.08C244.9 326.823 244.264 326.677 244.196 326.756C244.128 326.834 243.98 328.444 243.868 330.332L243.663 333.766L245.965 334.928C252.234 338.092 264.252 338.699 275.61 336.423C282.743 334.993 287.15 333.408 292.697 330.278L295.917 328.461L295.962 323.969C295.987 321.498 296.12 317.06 296.258 314.105C296.395 311.151 296.42 308.751 296.313 308.773C296.206 308.794 294.184 310.021 291.821 311.498ZM149.829 309.942C146.881 310.514 142.55 312.905 140.19 315.265C137.571 317.884 135.197 322.583 134.609 326.313C134.39 327.709 134.208 332.851 134.207 337.739L134.204 346.625H153.54H172.875L172.869 337.348C172.861 326.72 172.52 324.398 170.325 320.039C166.532 312.509 158.076 308.343 149.829 309.942ZM219.029 318.793C217.843 326.864 217.34 335.526 217.762 340.631L217.993 343.426L222.094 341.775L226.196 340.124L226.074 334.813C225.964 330.066 226.041 329.293 226.799 327.531C227.668 325.51 230.611 322.39 232.431 321.561C232.976 321.313 233.421 321.006 233.42 320.879C233.418 320.752 232.144 319.958 230.588 319.115C229.031 318.272 226.028 316.558 223.913 315.306C221.799 314.055 220.025 313.031 219.972 313.031C219.919 313.031 219.494 315.624 219.029 318.793ZM149.532 315.304C146.732 316.306 143.815 318.363 142.395 320.337C140.204 323.381 139.952 324.621 139.764 333.246L139.592 341.156H146.196H152.8L153.665 338.472C155.306 333.374 161.227 322.568 163.34 320.815C164.209 320.094 164 319.458 162.444 318.092C158.982 315.052 153.527 313.874 149.532 315.304ZM333.701 327.401C332.048 333.14 330.438 338.674 330.123 339.697L329.55 341.558L333.732 343.633C339.389 346.441 343.913 348.374 344.188 348.1C344.312 347.976 343.688 345.615 342.802 342.855C340.669 336.212 338.288 326.514 337.519 321.336C337.178 319.039 336.856 317.116 336.803 317.063C336.75 317.01 335.354 321.662 333.701 327.401ZM300.219 321.821C300.219 323.629 300.331 323.969 300.922 323.969C301.993 323.969 302.563 324.764 302.563 326.256C302.563 327.318 302.236 327.916 301.031 329.063C297.834 332.105 289.783 336.358 283.733 338.202C270.607 342.203 256.375 342.639 246.118 339.354C242.055 338.053 237.188 335.512 235.958 334.05C233.704 331.371 235.593 329.339 238.989 330.792C239.607 331.056 239.672 330.786 239.672 327.955C239.672 324.863 239.659 324.822 238.554 324.437C236.546 323.737 232.633 326.064 231.199 328.813C230.715 329.739 230.657 330.842 230.88 334.867C231.145 339.657 231.121 339.886 229.966 343.386C229.088 346.048 228.862 347.269 229.096 348.085C230.191 351.902 234.056 356.294 238.782 359.093C241.979 360.986 247.254 362.805 251.468 363.465C255.86 364.155 265.434 363.669 271.073 362.471C282.2 360.106 291.683 356.117 299.023 350.714L301.269 349.061L302.868 344.23C304.901 338.09 306.731 331.015 307.077 327.959C307.305 325.944 307.212 325.308 306.465 323.765C305.442 321.652 302.959 319.672 301.332 319.672C300.243 319.672 300.219 319.719 300.219 321.821ZM164.559 325.982C162.235 329.239 159.874 333.868 158.627 337.614C158.084 339.241 157.641 340.705 157.641 340.865C157.641 341.025 159.854 341.156 162.559 341.156H167.476L167.32 333.246C167.234 328.896 166.984 324.912 166.765 324.393C166.378 323.48 166.31 323.528 164.559 325.982ZM327.563 346.663C327.563 348.129 321.266 362.624 316.719 371.625C309.058 386.79 306.935 392.146 304.665 402.034C303.388 407.597 302.894 418.833 303.748 422.861L304.25 425.228L306.627 424.959C307.934 424.811 309.041 424.653 309.086 424.607C309.132 424.562 308.871 423.74 308.506 422.782C307.444 419.989 307.573 405.596 308.707 400.402C309.54 396.585 311.566 389.873 311.811 390.119C311.882 390.189 311.74 392.967 311.496 396.292C311.006 402.953 311.497 415.09 312.287 415.88C312.603 416.196 312.719 416.181 312.719 415.824C312.719 414.37 321.319 397.264 326.975 387.465C333.903 375.467 339.931 368.787 347.083 365.185C349.3 364.069 353.614 362.641 354.768 362.641C354.952 362.641 353.71 363.533 352.008 364.623C340.247 372.159 331.944 382.808 321.396 403.887C316.834 413.004 312.65 423.249 313.245 423.844C313.541 424.14 326.256 421.547 332.886 419.838C339.485 418.138 348.603 415.13 353.681 412.979C361.234 409.779 371.305 404.181 372.843 402.329C373.652 401.354 373.173 390.394 372.14 386.236C370.532 379.769 368.144 374.217 364.932 369.477C360.215 362.517 356.125 359.908 330.883 347.755C329.379 347.031 328.017 346.378 327.856 346.304C327.695 346.23 327.563 346.392 327.563 346.663ZM218.774 348.391C216.84 349.092 213.307 350.139 210.923 350.717L206.587 351.768L207.108 353.982C207.785 356.86 207.878 402.23 207.214 405.831C206.407 410.206 203.861 414.176 200.284 416.637L198.467 417.887L201.98 418.994C215.176 423.149 230.404 425.751 249.438 427.102C255.434 427.528 283.726 427.701 284.113 427.315C284.223 427.205 283.588 426.155 282.702 424.981C275.402 415.312 273.467 402.586 277.443 390.382C279.084 385.347 281.426 381.132 288.518 370.453C295.309 360.229 297.71 356.391 297.316 356.391C297.204 356.391 295.483 357.259 293.491 358.32C286.51 362.036 277.806 364.987 269.004 366.623C262.958 367.746 253.138 367.821 248.266 366.78C236.69 364.308 228.614 358.62 224.515 350.054C223.72 348.395 222.895 347.055 222.68 347.077C222.465 347.098 220.707 347.69 218.774 348.391ZM150.174 363.961C142.84 366.582 140.936 375.777 146.704 380.715L148.295 382.076L148.378 389.644C148.449 396.039 148.564 397.356 149.124 398.146C150.718 400.398 153.23 401.08 155.87 399.976C158.163 399.018 158.422 397.984 158.422 389.786V382.517L160.222 380.88C162.845 378.493 163.673 376.694 163.673 373.383C163.673 370.271 162.87 368.35 160.703 366.276C157.986 363.678 153.641 362.722 150.174 363.961ZM287.339 423.481L287.329 427.094H289.282C291.224 427.094 291.605 426.839 290.828 426.062C290.604 425.838 289.73 424.353 288.885 422.761L287.349 419.867L287.339 423.481Z" fill="black"/>
</svg>
